<svg xmlns="http://www.w3.org/2000/svg" width="300.37" height="251.079"><g data-name="Group 54"><path data-name="Path 190" d="M242.312 245.17L40.049 61.587 71.678 0l222.387 243.662z" fill="#f2f2f2"/><circle data-name="Ellipse 58" cx="12.237" cy="12.237" r="12.237" transform="translate(137.948 27.47)" fill="#f2f2f2"/><circle data-name="Ellipse 59" cx="4.079" cy="4.079" r="4.079" transform="translate(199.876 60.845)" fill="#3f3d56"/><circle data-name="Ellipse 60" cx="4.079" cy="4.079" r="4.079" transform="translate(199.876 93.107)" fill="#3f3d56"/><circle data-name="Ellipse 61" cx="4.079" cy="4.079" r="4.079" transform="translate(240.667 101.265)" fill="#3f3d56"/><ellipse data-name="Ellipse 62" cx="150.185" cy="7.417" rx="150.185" ry="7.417" transform="translate(0 236.246)" fill="#f2f2f2"/><path data-name="Path 191" d="M238.039 123.201c-1.7-2.81-7.654-2.737-7.654-2.737-5.417 8.049-18.44-.5-18.44-.5-9.672 4.327-15.573-9.462-15.573-9.462-13.014-1.946-11-15.614-11-15.614-6.475-1.3-4.658-13.006-4.658-13.006s3.593-2.947 1.825-5.1c-1.124-1.37-1.194-5.3-1.1-7.989a89.311 89.311 0 1057.627 54.1c-.459.518-.813.66-1.027.308z" fill="#3f3d56"/><path data-name="Path 192" d="M238.039 123.201c-1.7-2.81-7.654-2.737-7.654-2.737-5.417 8.049-18.44-.5-18.44-.5-9.672 4.327-15.573-9.462-15.573-9.462-13.014-1.946-11-15.614-11-15.614-6.475-1.3-4.658-13.006-4.658-13.006s3.593-2.947 1.825-5.1c-1.124-1.37-1.194-5.3-1.1-7.989a89.311 89.311 0 1057.627 54.1c-.459.518-.813.66-1.027.308z" opacity=".1"/><path data-name="Path 193" d="M232.743 122.849c-1.62-2.672-7.279-2.6-7.279-2.6-5.152 7.655-17.537-.476-17.537-.476-9.2 4.115-14.811-9-14.811-9-12.377-1.851-10.465-14.85-10.465-14.85-6.158-1.236-4.43-12.37-4.43-12.37s3.417-2.8 1.735-4.853c-1.069-1.3-1.135-5.044-1.042-7.6a84.939 84.939 0 1054.806 51.456c-.435.492-.774.628-.977.293z" fill="#3f3d56"/><path data-name="Path 194" d="M143.978 117.669s-14.657-9.327-28.647 0a20.235 20.235 0 00-8.459 12.585 27.954 27.954 0 005.488 23.741l31.651 39.98a9.408 9.408 0 009.382 3.419l.207-.048a9.434 9.434 0 005.965-4.529l22.012-38.655a37.435 37.435 0 004.755-23.286c-1.032-7.95-4.85-16.329-15.7-19.2-.005-.003-12.663-5.333-26.654 5.993z" fill="#fe855f"/><path data-name="Path 195" d="M143.978 117.669s-14.657-9.327-28.647 0a20.235 20.235 0 00-8.459 12.585 27.954 27.954 0 005.488 23.741l31.651 39.98a9.408 9.408 0 009.382 3.419l.207-.048a9.434 9.434 0 005.965-4.529l22.012-38.655a37.435 37.435 0 004.755-23.286c-1.032-7.95-4.85-16.329-15.7-19.2-.005-.003-12.663-5.333-26.654 5.993z" opacity=".1"/><path data-name="Path 196" d="M144.127 119.921s-13.749-8.749-26.873 0a18.982 18.982 0 00-7.935 11.805 26.222 26.222 0 005.148 22.271l29.69 37.5a8.826 8.826 0 008.8 3.207l.194-.045a8.851 8.851 0 005.6-4.248l20.648-36.261a35.118 35.118 0 004.461-21.844c-.968-7.457-4.549-15.318-14.731-18.013-.003.003-11.877-4.997-25.002 5.628z" fill="#fe855f"/><path data-name="Path 197" d="M144.662 134.923s-6.689-4.257-13.075 0a9.235 9.235 0 00-3.861 5.744 12.758 12.758 0 002.5 10.835s17.126 20.165 18.727 19.807l.094-.022c1.154-.277 12.768-19.709 12.768-19.709a17.086 17.086 0 002.17-10.628c-.471-3.628-2.213-7.453-7.167-8.764.011 0-5.771-2.432-12.156 2.737z" opacity=".1"/><path data-name="Path 198" d="M102.88 166.792l1.875 3.125 3.749 6.25 1.25 4.375-2.5 3.75 3.125 7.5 1.25 4.375-2.5 2.5 5 3.75" opacity=".1"/><path data-name="Path 199" d="M194.749 139.294v5l-3.125 8.124-1.875 4.375 3.125 5.625 1.25 3.75 5 1.875 1.875 3.125v7.495" opacity=".1"/><path data-name="Path 200" d="M226.62 144.294l-5 3.125s-2.5 1.25-2.5 1.875v5" opacity=".1"/><path data-name="Path 201" d="M204.123 126.795l1.25 6.25-1.25 4.375" opacity=".1"/><path data-name="Path 202" d="M209.123 183.038l-3.75 5.624-4.375 3.75v2.5l2.5 3.125v3.75l-1.875 3.75" opacity=".1"/><path data-name="Path 203" d="M173.5 76.798h-6.25l-5 4.375-8.124 4.375-3.75 3.125v1.25l-8.124 4.375-2.5 4.375" opacity=".1"/><path data-name="Path 204" d="M106.004 87.423l-5.625 11.249-1.875 4.375-4.375 5.625s-3.125 5.625-3.75 6.25-5 1.875-5 1.875l6.25 6.25" opacity=".1"/><path data-name="Path 205" d="M81.007 130.545l-1.25 8.124 1.25 5v8.749l-3.75 16.249 3.75 4.375 4.375 5.625" opacity=".1"/><path data-name="Path 206" d="M90.381 134.295l3.75 1.875 2.5 8.124 5-1.25 2.5 4.375" opacity=".1"/><path data-name="Path 207" d="M159.126 215.543l10-1.25 4.375-4.375h6.25" opacity=".1"/><path data-name="Path 208" d="M98.505 202.415l3.75 4.375 6.25 1.875 4.375 1.25 1.25 6.874" opacity=".1"/><path data-name="Path 209" d="M172.247 181.167l4.375-3.125 1.875-5 3.75-.625 1.875-6.25" opacity=".1"/><path data-name="Path 210" d="M60.012 24.133h10.464A12.457 12.457 0 0182.933 36.59v22.921H47.557V36.59a12.457 12.457 0 0112.455-12.457z" fill="#2f2e41"/><path data-name="Path 211" d="M70.756 220.702s-1.112 7.046-2.967 8.158 9.641 3.708 9.641 3.708l1.854-11.125z" fill="#fbbebe"/><path data-name="Path 212" d="M84.477 140.232l4.079 4.821-1.854 16.687-1.483 33s2.967 28.554 0 29.3-16.316.371-15.946-1.483.742-3.337 1.483-5.933-.742-11.866-.742-11.866l1.854-10.383-6.675-44.87z" fill="#2f2e41"/><path data-name="Path 213" d="M71.124 227.747s-4.079-.742-4.45 0-7.417 8.529-8.529 8.529-9.271 7.416-.742 7.787 22.62-6.3 22.62-6.3-2.074-9.436-1.964-8.983-6.935.821-6.935-1.033z" fill="#2f2e41"/><path data-name="Path 214" d="M66.678 210.689s10.383 11.5 10.754 12.608 5.933 0 5.933 0l2.225-7.417-1.854-2.6-10.383-8.529z" fill="#fbbebe"/><path data-name="Path 215" d="M81.511 219.218l-5.377 5.061s6.86 10.514 6.86 11.626.371 10.383 4.079 8.9 4.079-16.316 4.079-16.316-.371-15.2-2.6-16.316-7.1-.761-7.1-.761 3.026 7.435.059 7.806z" fill="#2f2e41"/><path data-name="Path 216" d="M50.732 107.229s-1.854 5.933-2.225 7.417-2.598 5.565-2.598 11.865.742 13.721 0 14.462-12.608 42.274-7.417 46.724 22.25 19.283 23.362 21.137 1.483 6.3 3.708 5.562 10.754-8.158 11.125-9.641-4.821-4.079-4.821-4.079-10.383-15.2-12.979-14.833-2.225-1.854-1.854-2.967 1.112-1.854 0-1.854-.371-2.967 0-4.45 8.9-21.508 8.9-21.508l22.62-10.012s-1.112-27.07-9.271-34.487l-1.854-4.45s-20.763-1.482-26.696 1.114z" fill="#2f2e41"/><path data-name="Path 217" d="M60.003 48.638s1.854 12.979-2.6 13.721-8.158.371-8.158.742S60.37 74.967 60.37 74.967l10.383-.742 9.271-10.012s-8.529-1.483-8.529-6.675-.371-8.9-.371-8.9z" fill="#fbbebe"/><path data-name="Path 218" d="M60.003 48.638s1.854 12.979-2.6 13.721-8.158.371-8.158.742S60.37 74.967 60.37 74.967l10.383-.742 9.271-10.012s-8.529-1.483-8.529-6.675-.371-8.9-.371-8.9z" opacity=".1"/><circle data-name="Ellipse 63" cx="11.496" cy="11.496" r="11.496" transform="translate(54.255 31.024)" fill="#fbbebe"/><path data-name="Path 219" d="M55.552 61.246S41.09 63.1 39.977 67.921s7.417 34.858 8.529 37.453a8.2 8.2 0 01.742 4.45 14.672 14.672 0 0111.866-2.6c7.046 1.483 17.058.742 17.058.742s3.337-13.721 4.079-15.2 3.708-9.642 3.708-11.866 4.45-11.5 4.45-11.5-2.225-6.675-10.383-6.3c0 0-3.559-1.593-4.56-.426s-6.564 6.359-13.61 4.134-6.304-5.562-6.304-5.562z" fill="#ff6584"/><path data-name="Path 220" d="M44.057 67.55h-4.079l-2.225 29.3s8.158 2.225 9.271.742-2.967-30.042-2.967-30.042z" fill="#ff6584"/><path data-name="Path 221" d="M83.365 67.55l7.046 1.854s5.192 18.912 5.562 19.283a9.434 9.434 0 01.742 2.6s0 .371.742 1.483 1.854.371 1.113 1.854-1.854.742-1.113 2.225.371 5.562.371 5.562-1.854-7.046-8.529-5.192l-4.45-20.025z" fill="#ff6584"/><path data-name="Path 222" d="M74.726 39.723H56.864l-4.044-9.294h24.939z" fill="#2f2e41"/><ellipse data-name="Ellipse 64" cx=".899" cy="2.398" rx=".899" ry="2.398" transform="rotate(-16.16 174.67652 -163.19387)" fill="#ffb9b9"/><ellipse data-name="Ellipse 65" cx="2.398" cy=".899" rx="2.398" ry=".899" transform="rotate(-73.84 68.93753 -27.63095)" fill="#ffb9b9"/><circle data-name="Ellipse 66" cx="6.675" cy="6.675" r="6.675" transform="translate(68.974 80.128)" fill="#3f3d56"/><circle data-name="Ellipse 67" cx="6.675" cy="6.675" r="6.675" transform="translate(68.974 80.128)" opacity=".1"/><circle data-name="Ellipse 68" cx="6.013" cy="6.013" r="6.013" transform="translate(69.636 80.79)" fill="#3f3d56"/><path data-name="Path 223" d="M75.384 83.404a2.89 2.89 0 00-2.994 0 2.115 2.115 0 00-.884 1.315 2.922 2.922 0 00.574 2.482l3.308 4.179a.983.983 0 00.981.357l.022-.005a.986.986 0 00.623-.473l2.3-4.04a3.913 3.913 0 00.5-2.434 2.186 2.186 0 00-1.641-2.007 2.847 2.847 0 00-2.789.626z" opacity=".1"/><path data-name="Path 224" d="M75.399 83.637a2.711 2.711 0 00-2.809 0 1.984 1.984 0 00-.829 1.234 2.741 2.741 0 00.538 2.328l3.1 3.92a.923.923 0 00.92.335h.02a.925.925 0 00.585-.444l2.158-3.79a3.671 3.671 0 00.466-2.283 2.051 2.051 0 00-1.54-1.883 2.669 2.669 0 00-2.609.583z" fill="#fe855f"/><path data-name="Path 225" d="M75.455 85.208a1.319 1.319 0 00-1.367 0 .965.965 0 00-.4.6 1.333 1.333 0 00.262 1.133 18.384 18.384 0 001.957 2.07h.01a23.5 23.5 0 001.335-2.06 1.786 1.786 0 00.227-1.111 1 1 0 00-.749-.916 1.3 1.3 0 00-1.275.284z" opacity=".1"/><circle data-name="Ellipse 69" cx="6.675" cy="6.675" r="6.675" transform="translate(63.041 83.836)" fill="#3f3d56"/><circle data-name="Ellipse 70" cx="6.675" cy="6.675" r="6.675" transform="translate(63.041 83.836)" opacity=".1"/><circle data-name="Ellipse 71" cx="6.013" cy="6.013" r="6.013" transform="translate(63.703 84.498)" fill="#3f3d56"/><path data-name="Path 226" d="M69.451 87.112a2.89 2.89 0 00-2.994 0 2.115 2.115 0 00-.884 1.315 2.922 2.922 0 00.574 2.482l3.308 4.179a.984.984 0 00.981.357l.022-.005a.986.986 0 00.623-.473l2.3-4.04a3.913 3.913 0 00.5-2.434 2.187 2.187 0 00-1.641-2.007 2.847 2.847 0 00-2.789.626z" opacity=".1"/><path data-name="Path 227" d="M69.466 87.345a2.711 2.711 0 00-2.809 0 1.984 1.984 0 00-.829 1.234 2.741 2.741 0 00.538 2.328l3.1 3.92a.923.923 0 00.92.335h.02a.925.925 0 00.585-.444l2.158-3.79a3.671 3.671 0 00.466-2.283 2.051 2.051 0 00-1.54-1.883 2.67 2.67 0 00-2.609.583z" fill="#fe855f"/><path data-name="Path 228" d="M69.522 88.916a1.319 1.319 0 00-1.367 0 .965.965 0 00-.4.6 1.333 1.333 0 00.262 1.133 18.378 18.378 0 001.957 2.07h.01a23.506 23.506 0 001.335-2.06 1.785 1.785 0 00.227-1.111 1 1 0 00-.749-.916 1.3 1.3 0 00-1.275.284z" opacity=".1"/><path data-name="Path 229" d="M64.625 73.824c-.163-.268-.73-.261-.73-.261-.517.768-1.76-.048-1.76-.048-.923.413-1.486-.9-1.486-.9a1.277 1.277 0 01-1.05-1.49c-.618-.124-.445-1.241-.445-1.241s.343-.281.174-.487a1.5 1.5 0 01-.1-.762 8.523 8.523 0 105.5 5.163c-.048.045-.082.059-.103.026z" fill="#3f3d56"/><path data-name="Path 230" d="M64.625 73.824c-.163-.268-.73-.261-.73-.261-.517.768-1.76-.048-1.76-.048-.923.413-1.486-.9-1.486-.9a1.277 1.277 0 01-1.05-1.49c-.618-.124-.445-1.241-.445-1.241s.343-.281.174-.487a1.5 1.5 0 01-.1-.762 8.523 8.523 0 105.5 5.163c-.048.045-.082.059-.103.026z" opacity=".1"/><path data-name="Path 231" d="M64.12 73.789c-.155-.255-.695-.248-.695-.248-.492.731-1.674-.045-1.674-.045-.878.393-1.413-.859-1.413-.859a1.214 1.214 0 01-1-1.417c-.588-.118-.423-1.181-.423-1.181s.326-.267.166-.463a1.424 1.424 0 01-.1-.725 8.106 8.106 0 105.23 4.911c-.04.046-.072.057-.091.027z" fill="#3f3d56"/><path data-name="Path 232" d="M55.649 73.295a2.638 2.638 0 00-2.734 0 1.931 1.931 0 00-.807 1.2 2.668 2.668 0 00.524 2.266l3.021 3.816a.9.9 0 00.9.326h.02a.9.9 0 00.569-.432l2.1-3.689a3.573 3.573 0 00.454-2.222 2 2 0 00-1.5-1.833 2.6 2.6 0 00-2.547.568z" fill="#fe855f"/><path data-name="Path 233" d="M55.649 73.295a2.638 2.638 0 00-2.734 0 1.931 1.931 0 00-.807 1.2 2.668 2.668 0 00.524 2.266l3.021 3.816a.9.9 0 00.9.326h.02a.9.9 0 00.569-.432l2.1-3.689a3.573 3.573 0 00.454-2.222 2 2 0 00-1.5-1.833 2.6 2.6 0 00-2.547.568z" opacity=".1"/><path data-name="Path 234" d="M55.663 73.51a2.475 2.475 0 00-2.565 0 1.811 1.811 0 00-.757 1.127 2.5 2.5 0 00.491 2.125l2.834 3.579a.842.842 0 00.84.306h.019a.845.845 0 00.534-.405l1.971-3.461a3.351 3.351 0 00.426-2.085 1.873 1.873 0 00-1.406-1.719 2.438 2.438 0 00-2.387.533z" fill="#fe855f"/><path data-name="Path 235" d="M55.714 74.941a1.2 1.2 0 00-1.248 0 .881.881 0 00-.368.548 1.218 1.218 0 00.239 1.034 16.784 16.784 0 001.787 1.89h.009a21.446 21.446 0 001.219-1.881 1.631 1.631 0 00.207-1.014.911.911 0 00-.684-.836 1.186 1.186 0 00-1.161.259z" opacity=".1"/><path data-name="Path 236" d="M51.727 77.987l.179.3.358.6.119.418-.239.358.3.716.119.418-.238.239.477.358" opacity=".1"/><path data-name="Path 237" d="M60.494 75.359v.477l-.3.775-.179.417.3.537.119.358.477.179.179.3v.716" opacity=".1"/><path data-name="Path 238" d="M63.536 75.836l-.477.3s-.239.119-.239.179v.477" opacity=".1"/><path data-name="Path 239" d="M61.389 74.164l.119.6-.119.418" opacity=".1"/><path data-name="Path 240" d="M61.865 79.534l-.358.537-.418.358v.239l.239.3v.358l-.179.358" opacity=".1"/><path data-name="Path 241" d="M58.466 69.395h-.6l-.477.418-.775.418-.358.3v.119l-.775.417-.238.418" opacity=".1"/><path data-name="Path 242" d="M52.025 70.409l-.537 1.074-.179.418-.418.537s-.3.537-.358.6a2.451 2.451 0 01-.477.179l.6.6" opacity=".1"/><path data-name="Path 243" d="M49.639 74.524l-.119.775.119.477v.835l-.358 1.55.358.418.418.537" opacity=".1"/><path data-name="Path 244" d="M50.534 74.882l.358.179.238.775.477-.119.238.418" opacity=".1"/><path data-name="Path 245" d="M57.094 82.636l.954-.119.418-.418h.6" opacity=".1"/><path data-name="Path 246" d="M51.309 81.383l.358.418.6.179.418.119.119.656" opacity=".1"/><path data-name="Path 247" d="M58.347 79.355l.418-.3.179-.477.358-.06.179-.6" opacity=".1"/><path data-name="Path 248" d="M38.866 93.879l-1.112 2.967s-.742 9.642 3.708 9.271 7.046-5.933 7.046-5.933-2.6-7.046-5.562-6.3-4.08-.005-4.08-.005z" fill="#ff6584"/><path data-name="Path 249" d="M42.572 95.733s-2.225 6.675.371 6.675 7.417-4.079 7.787-7.417 7.046-15.946 2.225-14.833-7.046 10.383-7.046 10.383z" fill="#fbbebe"/><path data-name="Path 250" d="M95.603 96.099l2.317 3.872s1.021 7.253-4.171 7.253-12.608-7.046-12.608-7.046-3.708-1.483-5.933-1.112-14.462 0-9.271-6.3 14.091 0 14.091 0l9.271 4.45 4.821-2.6z" fill="#fbbebe"/><path data-name="Path 251" d="M92.45 91.098l-3.708 5.933s8.529 1.112 9.271 2.967-3.337-9.641-3.337-9.641z" fill="#ff6584"/></g></svg>