<svg xmlns="http://www.w3.org/2000/svg" width="300.37" height="251.079" viewBox="0 0 300.37 251.079">
  <g id="Group_54" data-name="Group 54" transform="translate(-870.969 -715)">
    <g id="undraw_cookie_love_ulvn" transform="translate(870.969 715)">
      <path id="Path_190" data-name="Path 190" d="M310.263,245.17,108,61.587,139.629,0,362.016,243.662Z" transform="translate(-67.951)" fill="#f2f2f2"/>
      <circle id="Ellipse_58" data-name="Ellipse 58" cx="12.237" cy="12.237" r="12.237" transform="translate(137.948 27.47)" fill="#f2f2f2"/>
      <circle id="Ellipse_59" data-name="Ellipse 59" cx="4.079" cy="4.079" r="4.079" transform="translate(199.876 60.845)" fill="#3f3d56"/>
      <circle id="Ellipse_60" data-name="Ellipse 60" cx="4.079" cy="4.079" r="4.079" transform="translate(199.876 93.107)" fill="#3f3d56"/>
      <circle id="Ellipse_61" data-name="Ellipse 61" cx="4.079" cy="4.079" r="4.079" transform="translate(240.667 101.265)" fill="#3f3d56"/>
      <ellipse id="Ellipse_62" data-name="Ellipse 62" cx="150.185" cy="7.417" rx="150.185" ry="7.417" transform="translate(0 236.246)" fill="#f2f2f2"/>
      <path id="Path_191" data-name="Path 191" d="M545.032,344.817c-1.7-2.81-7.654-2.737-7.654-2.737-5.417,8.049-18.44-.5-18.44-.5-9.672,4.327-15.573-9.462-15.573-9.462-13.014-1.946-11-15.614-11-15.614-6.475-1.3-4.658-13.006-4.658-13.006s3.593-2.947,1.825-5.1c-1.124-1.37-1.194-5.3-1.1-7.989a89.311,89.311,0,1,0,57.627,54.1C545.6,345.027,545.246,345.169,545.032,344.817Z" transform="translate(-306.993 -221.616)" fill="#3f3d56"/>
      <path id="Path_192" data-name="Path 192" d="M545.032,344.817c-1.7-2.81-7.654-2.737-7.654-2.737-5.417,8.049-18.44-.5-18.44-.5-9.672,4.327-15.573-9.462-15.573-9.462-13.014-1.946-11-15.614-11-15.614-6.475-1.3-4.658-13.006-4.658-13.006s3.593-2.947,1.825-5.1c-1.124-1.37-1.194-5.3-1.1-7.989a89.311,89.311,0,1,0,57.627,54.1C545.6,345.027,545.246,345.169,545.032,344.817Z" transform="translate(-306.993 -221.616)" opacity="0.1"/>
      <path id="Path_193" data-name="Path 193" d="M545.037,348.706c-1.62-2.672-7.279-2.6-7.279-2.6-5.152,7.655-17.537-.476-17.537-.476-9.2,4.115-14.811-9-14.811-9-12.377-1.851-10.465-14.85-10.465-14.85-6.158-1.236-4.43-12.37-4.43-12.37s3.417-2.8,1.735-4.853c-1.069-1.3-1.135-5.044-1.042-7.6a84.939,84.939,0,1,0,54.806,51.456C545.579,348.905,545.24,349.041,545.037,348.706Z" transform="translate(-312.294 -225.857)" fill="#3f3d56"/>
      <path id="Path_194" data-name="Path 194" d="M519.077,416.478s-14.657-9.327-28.647,0a20.235,20.235,0,0,0-8.459,12.585,27.954,27.954,0,0,0,5.488,23.741l31.651,39.98a9.408,9.408,0,0,0,9.382,3.419l.207-.048a9.434,9.434,0,0,0,5.965-4.529l22.012-38.655a37.435,37.435,0,0,0,4.755-23.286c-1.032-7.95-4.85-16.329-15.7-19.2C545.726,410.482,533.068,405.152,519.077,416.478Z" transform="translate(-375.099 -298.809)" fill="#fe855f"/>
      <path id="Path_195" data-name="Path 195" d="M519.077,416.478s-14.657-9.327-28.647,0a20.235,20.235,0,0,0-8.459,12.585,27.954,27.954,0,0,0,5.488,23.741l31.651,39.98a9.408,9.408,0,0,0,9.382,3.419l.207-.048a9.434,9.434,0,0,0,5.965-4.529l22.012-38.655a37.435,37.435,0,0,0,4.755-23.286c-1.032-7.95-4.85-16.329-15.7-19.2C545.726,410.482,533.068,405.152,519.077,416.478Z" transform="translate(-375.099 -298.809)" opacity="0.1"/>
      <path id="Path_196" data-name="Path 196" d="M523.454,423.31s-13.749-8.749-26.873,0a18.982,18.982,0,0,0-7.935,11.805,26.222,26.222,0,0,0,5.148,22.271l29.69,37.5a8.826,8.826,0,0,0,8.8,3.207l.194-.045a8.851,8.851,0,0,0,5.6-4.248l20.648-36.261a35.118,35.118,0,0,0,4.461-21.844c-.968-7.457-4.549-15.318-14.731-18.013C548.453,417.685,536.579,412.685,523.454,423.31Z" transform="translate(-379.327 -303.389)" fill="#fe855f"/>
      <path id="Path_197" data-name="Path 197" d="M555.833,469.691s-6.689-4.257-13.075,0a9.235,9.235,0,0,0-3.861,5.744,12.758,12.758,0,0,0,2.5,10.835s17.126,20.165,18.727,19.807l.094-.022c1.154-.277,12.768-19.709,12.768-19.709a17.086,17.086,0,0,0,2.17-10.628c-.471-3.628-2.213-7.453-7.167-8.764C568,466.954,562.218,464.522,555.833,469.691Z" transform="translate(-411.171 -334.768)" opacity="0.1"/>
      <path id="Path_198" data-name="Path 198" d="M277.434,449.785l1.875,3.125,3.749,6.25,1.25,4.375-2.5,3.75,3.125,7.5,1.25,4.375-2.5,2.5,5,3.75" transform="translate(-174.554 -282.993)" opacity="0.1"/>
      <path id="Path_199" data-name="Path 199" d="M516.692,375.631v5l-3.125,8.124-1.875,4.375,3.125,5.625,1.25,3.75,5,1.875,1.875,3.125V415" transform="translate(-321.943 -236.337)" opacity="0.1"/>
      <path id="Path_200" data-name="Path 200" d="M793.4,500.574l-5,3.125s-2.5,1.25-2.5,1.875v5" transform="translate(-566.78 -356.28)" opacity="0.1"/>
      <path id="Path_201" data-name="Path 201" d="M550.455,341.925l1.25,6.25-1.25,4.375" transform="translate(-346.332 -215.13)" opacity="0.1"/>
      <path id="Path_202" data-name="Path 202" d="M550.152,493.6l-3.75,5.624-4.375,3.75v2.5l2.5,3.125v3.75l-1.875,3.75" transform="translate(-341.029 -310.562)" opacity="0.1"/>
      <path id="Path_203" data-name="Path 203" d="M410.615,207.1h-6.25l-5,4.375-8.124,4.375-3.75,3.125v1.25l-8.124,4.375-2.5,4.375" transform="translate(-237.115 -130.302)" opacity="0.1"/>
      <path id="Path_204" data-name="Path 204" d="M445.868,347.211l-5.625,11.249-1.875,4.375-4.375,5.625s-3.125,5.625-3.75,6.25-5,1.875-5,1.875l6.25,6.25" transform="translate(-339.864 -259.788)" opacity="0.1"/>
      <path id="Path_205" data-name="Path 205" d="M212.086,352.037l-1.25,8.124,1.25,5v8.749l-3.75,16.249,3.75,4.375,4.375,5.625" transform="translate(-131.079 -221.492)" opacity="0.1"/>
      <path id="Path_206" data-name="Path 206" d="M243.727,362.149l3.75,1.875,2.5,8.124,5-1.25,2.5,4.375" transform="translate(-153.346 -227.854)" opacity="0.1"/>
      <path id="Path_207" data-name="Path 207" d="M429.112,571.7l10-1.25,4.375-4.375h6.25" transform="translate(-269.986 -356.157)" opacity="0.1"/>
      <path id="Path_208" data-name="Path 208" d="M265.636,545.848l3.75,4.375,6.25,1.875,4.375,1.25,1.25,6.874" transform="translate(-167.131 -343.433)" opacity="0.1"/>
      <path id="Path_209" data-name="Path 209" d="M464.5,463.1l4.375-3.125,1.875-5,3.75-.625,1.875-6.25" transform="translate(-292.253 -281.933)" opacity="0.1"/>
      <path id="Path_210" data-name="Path 210" d="M140.7,65.079h10.464a12.457,12.457,0,0,1,12.457,12.457v22.921H128.245V77.536A12.457,12.457,0,0,1,140.7,65.079Z" transform="translate(-80.688 -40.946)" fill="#2f2e41"/>
      <path id="Path_211" data-name="Path 211" d="M380.431,706.621s-1.112,7.046-2.967,8.158,9.641,3.708,9.641,3.708l1.854-11.125Z" transform="translate(-309.675 -485.919)" fill="#fbbebe"/>
      <path id="Path_212" data-name="Path 212" d="M390.091,489.621l4.079,4.821-1.854,16.687-1.483,33s2.967,28.554,0,29.3-16.316.371-15.946-1.483.742-3.337,1.483-5.933-.742-11.866-.742-11.866l1.854-10.383-6.675-44.87Z" transform="translate(-305.614 -349.389)" fill="#2f2e41"/>
      <path id="Path_213" data-name="Path 213" d="M357,725.062s-4.079-.742-4.45,0-7.417,8.529-8.529,8.529-9.271,7.416-.742,7.787,22.62-6.3,22.62-6.3-2.074-9.436-1.964-8.983S357,726.916,357,725.062Z" transform="translate(-285.876 -497.315)" fill="#2f2e41"/>
      <path id="Path_214" data-name="Path 214" d="M374.808,669.554s10.383,11.5,10.754,12.608,5.933,0,5.933,0l2.225-7.417-1.854-2.6-10.383-8.529Z" transform="translate(-308.13 -458.865)" fill="#fbbebe"/>
      <path id="Path_215" data-name="Path 215" d="M405.685,689.286l-5.377,5.061s6.86,10.514,6.86,11.626.371,10.383,4.079,8.9,4.079-16.316,4.079-16.316-.371-15.2-2.6-16.316-7.1-.761-7.1-.761S408.652,688.915,405.685,689.286Z" transform="translate(-324.174 -470.068)" fill="#2f2e41"/>
      <path id="Path_216" data-name="Path 216" d="M308.823,398.018s-1.854,5.933-2.225,7.417S304,411,304,417.3s.742,13.721,0,14.462-12.608,42.274-7.417,46.724,22.25,19.283,23.362,21.137,1.483,6.3,3.708,5.562,10.754-8.158,11.125-9.641-4.821-4.079-4.821-4.079-10.383-15.2-12.979-14.833-2.225-1.854-1.854-2.967,1.112-1.854,0-1.854-.371-2.967,0-4.45,8.9-21.508,8.9-21.508l22.62-10.012s-1.112-27.07-9.271-34.487l-1.854-4.45S314.756,395.422,308.823,398.018Z" transform="translate(-258.091 -290.789)" fill="#2f2e41"/>
      <path id="Path_217" data-name="Path 217" d="M338.562,242.621s1.854,12.979-2.6,13.721-8.158.371-8.158.742,11.125,11.866,11.125,11.866l10.383-.742,9.271-10.012s-8.529-1.483-8.529-6.675-.371-8.9-.371-8.9Z" transform="translate(-278.559 -193.983)" fill="#fbbebe"/>
      <path id="Path_218" data-name="Path 218" d="M338.562,242.621s1.854,12.979-2.6,13.721-8.158.371-8.158.742,11.125,11.866,11.125,11.866l10.383-.742,9.271-10.012s-8.529-1.483-8.529-6.675-.371-8.9-.371-8.9Z" transform="translate(-278.559 -193.983)" opacity="0.1"/>
      <circle id="Ellipse_63" data-name="Ellipse 63" cx="11.496" cy="11.496" r="11.496" transform="translate(54.255 31.024)" fill="#fbbebe"/>
      <path id="Path_219" data-name="Path 219" d="M318.213,276.621s-14.462,1.854-15.575,6.675,7.417,34.858,8.529,37.453a8.2,8.2,0,0,1,.742,4.45,14.672,14.672,0,0,1,11.866-2.6c7.046,1.483,17.058.742,17.058.742s3.337-13.721,4.079-15.2,3.708-9.642,3.708-11.866,4.45-11.5,4.45-11.5-2.225-6.675-10.383-6.3c0,0-3.559-1.593-4.56-.426s-6.564,6.359-13.61,4.134S318.213,276.621,318.213,276.621Z" transform="translate(-262.661 -215.375)" fill="#ff6584"/>
      <path id="Path_220" data-name="Path 220" d="M303.112,293.621h-4.079l-2.225,29.3s8.158,2.225,9.271.742S303.112,293.621,303.112,293.621Z" transform="translate(-259.055 -226.071)" fill="#ff6584"/>
      <path id="Path_221" data-name="Path 221" d="M419.808,293.621l7.046,1.854s5.192,18.912,5.562,19.283a9.434,9.434,0,0,1,.742,2.6s0,.371.742,1.483,1.854.371,1.113,1.854-1.854.742-1.113,2.225.371,5.562.371,5.562-1.854-7.046-8.529-5.192l-4.45-20.025Z" transform="translate(-336.443 -226.071)" fill="#ff6584"/>
      <path id="Path_222" data-name="Path 222" d="M164.344,91.351H146.482l-4.044-9.294h24.939Z" transform="translate(-89.618 -51.628)" fill="#2f2e41"/>
      <ellipse id="Ellipse_64" data-name="Ellipse 64" cx="0.899" cy="2.398" rx="0.899" ry="2.398" transform="translate(52.322 42.168) rotate(-16.16)" fill="#ffb9b9"/>
      <ellipse id="Ellipse_65" data-name="Ellipse 65" cx="2.398" cy="0.899" rx="2.398" ry="0.899" transform="translate(76.29 46.273) rotate(-73.84)" fill="#ffb9b9"/>
      <circle id="Ellipse_66" data-name="Ellipse 66" cx="6.675" cy="6.675" r="6.675" transform="translate(68.974 80.128)" fill="#3f3d56"/>
      <circle id="Ellipse_67" data-name="Ellipse 67" cx="6.675" cy="6.675" r="6.675" transform="translate(68.974 80.128)" opacity="0.1"/>
      <circle id="Ellipse_68" data-name="Ellipse 68" cx="6.013" cy="6.013" r="6.013" transform="translate(69.636 80.79)" fill="#3f3d56"/>
      <path id="Path_223" data-name="Path 223" d="M391.581,335.088a2.89,2.89,0,0,0-2.994,0,2.115,2.115,0,0,0-.884,1.315,2.922,2.922,0,0,0,.574,2.482l3.308,4.179a.983.983,0,0,0,.981.357l.022-.005a.986.986,0,0,0,.623-.473l2.3-4.04a3.913,3.913,0,0,0,.5-2.434,2.186,2.186,0,0,0-1.641-2.007A2.847,2.847,0,0,0,391.581,335.088Z" transform="translate(-316.197 -251.684)" opacity="0.1"/>
      <path id="Path_224" data-name="Path 224" d="M392.038,335.8a2.711,2.711,0,0,0-2.809,0,1.984,1.984,0,0,0-.829,1.234,2.741,2.741,0,0,0,.538,2.328l3.1,3.92a.923.923,0,0,0,.92.335l.02,0a.925.925,0,0,0,.585-.444l2.158-3.79a3.671,3.671,0,0,0,.466-2.283,2.051,2.051,0,0,0-1.54-1.883A2.669,2.669,0,0,0,392.038,335.8Z" transform="translate(-316.639 -252.163)" fill="#fe855f"/>
      <path id="Path_225" data-name="Path 225" d="M395.418,340.651a1.319,1.319,0,0,0-1.367,0,.965.965,0,0,0-.4.6,1.333,1.333,0,0,0,.262,1.133,18.384,18.384,0,0,0,1.957,2.07l.01,0a23.5,23.5,0,0,0,1.335-2.06,1.786,1.786,0,0,0,.227-1.111,1,1,0,0,0-.749-.916A1.3,1.3,0,0,0,395.418,340.651Z" transform="translate(-319.963 -255.443)" opacity="0.1"/>
      <circle id="Ellipse_69" data-name="Ellipse 69" cx="6.675" cy="6.675" r="6.675" transform="translate(63.041 83.836)" fill="#3f3d56"/>
      <circle id="Ellipse_70" data-name="Ellipse 70" cx="6.675" cy="6.675" r="6.675" transform="translate(63.041 83.836)" opacity="0.1"/>
      <circle id="Ellipse_71" data-name="Ellipse 71" cx="6.013" cy="6.013" r="6.013" transform="translate(63.703 84.498)" fill="#3f3d56"/>
      <path id="Path_226" data-name="Path 226" d="M375.581,345.088a2.89,2.89,0,0,0-2.994,0,2.115,2.115,0,0,0-.884,1.315,2.922,2.922,0,0,0,.574,2.482l3.308,4.179a.984.984,0,0,0,.981.357l.022-.005a.986.986,0,0,0,.623-.473l2.3-4.04a3.913,3.913,0,0,0,.5-2.434,2.187,2.187,0,0,0-1.641-2.007A2.847,2.847,0,0,0,375.581,345.088Z" transform="translate(-306.13 -257.976)" opacity="0.1"/>
      <path id="Path_227" data-name="Path 227" d="M376.038,345.8a2.711,2.711,0,0,0-2.809,0,1.984,1.984,0,0,0-.829,1.234,2.741,2.741,0,0,0,.538,2.328l3.1,3.92a.923.923,0,0,0,.92.335l.02,0a.925.925,0,0,0,.585-.444l2.158-3.79a3.671,3.671,0,0,0,.466-2.283,2.051,2.051,0,0,0-1.54-1.883A2.67,2.67,0,0,0,376.038,345.8Z" transform="translate(-306.572 -258.455)" fill="#fe855f"/>
      <path id="Path_228" data-name="Path 228" d="M379.418,350.651a1.319,1.319,0,0,0-1.367,0,.965.965,0,0,0-.4.6,1.333,1.333,0,0,0,.262,1.133,18.378,18.378,0,0,0,1.957,2.07l.01,0a23.506,23.506,0,0,0,1.335-2.06,1.785,1.785,0,0,0,.227-1.111,1,1,0,0,0-.749-.916A1.3,1.3,0,0,0,379.418,350.651Z" transform="translate(-309.896 -261.735)" opacity="0.1"/>
      <path id="Path_229" data-name="Path 229" d="M341.436,301.1c-.163-.268-.73-.261-.73-.261-.517.768-1.76-.048-1.76-.048-.923.413-1.486-.9-1.486-.9a1.277,1.277,0,0,1-1.05-1.49c-.618-.124-.445-1.241-.445-1.241s.343-.281.174-.487a1.5,1.5,0,0,1-.1-.762,8.523,8.523,0,1,0,5.5,5.163C341.491,301.119,341.457,301.133,341.436,301.1Z" transform="translate(-276.811 -227.276)" fill="#3f3d56"/>
      <path id="Path_230" data-name="Path 230" d="M341.436,301.1c-.163-.268-.73-.261-.73-.261-.517.768-1.76-.048-1.76-.048-.923.413-1.486-.9-1.486-.9a1.277,1.277,0,0,1-1.05-1.49c-.618-.124-.445-1.241-.445-1.241s.343-.281.174-.487a1.5,1.5,0,0,1-.1-.762,8.523,8.523,0,1,0,5.5,5.163C341.491,301.119,341.457,301.133,341.436,301.1Z" transform="translate(-276.811 -227.276)" opacity="0.1"/>
      <path id="Path_231" data-name="Path 231" d="M341.436,301.47c-.155-.255-.695-.248-.695-.248-.492.731-1.674-.045-1.674-.045-.878.393-1.413-.859-1.413-.859a1.214,1.214,0,0,1-1-1.417c-.588-.118-.423-1.181-.423-1.181s.326-.267.166-.463a1.424,1.424,0,0,1-.1-.725,8.106,8.106,0,1,0,5.23,4.911C341.487,301.489,341.455,301.5,341.436,301.47Z" transform="translate(-277.316 -227.681)" fill="#3f3d56"/>
      <path id="Path_232" data-name="Path 232" d="M338.945,307.94a2.638,2.638,0,0,0-2.734,0,1.931,1.931,0,0,0-.807,1.2,2.668,2.668,0,0,0,.524,2.266l3.021,3.816a.9.9,0,0,0,.9.326l.02,0a.9.9,0,0,0,.569-.432l2.1-3.689a3.573,3.573,0,0,0,.454-2.222,2,2,0,0,0-1.5-1.833A2.6,2.6,0,0,0,338.945,307.94Z" transform="translate(-283.296 -234.645)" fill="#fe855f"/>
      <path id="Path_233" data-name="Path 233" d="M338.945,307.94a2.638,2.638,0,0,0-2.734,0,1.931,1.931,0,0,0-.807,1.2,2.668,2.668,0,0,0,.524,2.266l3.021,3.816a.9.9,0,0,0,.9.326l.02,0a.9.9,0,0,0,.569-.432l2.1-3.689a3.573,3.573,0,0,0,.454-2.222,2,2,0,0,0-1.5-1.833A2.6,2.6,0,0,0,338.945,307.94Z" transform="translate(-283.296 -234.645)" opacity="0.1"/>
      <path id="Path_234" data-name="Path 234" d="M339.363,308.592a2.475,2.475,0,0,0-2.565,0,1.811,1.811,0,0,0-.757,1.127,2.5,2.5,0,0,0,.491,2.125l2.834,3.579a.842.842,0,0,0,.84.306l.019,0a.845.845,0,0,0,.534-.405l1.971-3.461a3.351,3.351,0,0,0,.426-2.085,1.873,1.873,0,0,0-1.406-1.719A2.438,2.438,0,0,0,339.363,308.592Z" transform="translate(-283.7 -235.082)" fill="#fe855f"/>
      <path id="Path_235" data-name="Path 235" d="M342.449,313.018a1.2,1.2,0,0,0-1.248,0,.881.881,0,0,0-.368.548,1.218,1.218,0,0,0,.239,1.034,16.784,16.784,0,0,0,1.787,1.89l.009,0a21.446,21.446,0,0,0,1.219-1.881,1.631,1.631,0,0,0,.207-1.014.911.911,0,0,0-.684-.836A1.186,1.186,0,0,0,342.449,313.018Z" transform="translate(-286.735 -238.077)" opacity="0.1"/>
      <path id="Path_236" data-name="Path 236" d="M139.49,210.3l.179.3.358.6.119.418-.239.358.3.716.119.418-.238.239.477.358" transform="translate(-87.763 -132.313)" opacity="0.1"/>
      <path id="Path_237" data-name="Path 237" d="M162.323,203.219v.477l-.3.775-.179.417.3.537.119.358.477.179.179.3v.716" transform="translate(-101.829 -127.86)" opacity="0.1"/>
      <path id="Path_238" data-name="Path 238" d="M365.122,315.966l-.477.3s-.239.119-.239.179v.477" transform="translate(-301.586 -240.13)" opacity="0.1"/>
      <path id="Path_239" data-name="Path 239" d="M165.545,200l.119.6-.119.418" transform="translate(-104.156 -125.836)" opacity="0.1"/>
      <path id="Path_240" data-name="Path 240" d="M165.516,214.478l-.358.537-.418.358v.239l.239.3v.358l-.179.358" transform="translate(-103.651 -134.944)" opacity="0.1"/>
      <path id="Path_241" data-name="Path 241" d="M152.2,187.135h-.6l-.477.418-.775.418-.358.3v.119l-.775.417-.238.418" transform="translate(-93.734 -117.74)" opacity="0.1"/>
      <path id="Path_242" data-name="Path 242" d="M331.955,301.33l-.537,1.074-.179.418-.418.537s-.3.537-.358.6a2.451,2.451,0,0,1-.477.179l.6.6" transform="translate(-279.93 -230.921)" opacity="0.1"/>
      <path id="Path_243" data-name="Path 243" d="M133.253,200.967l-.119.775.119.477v.835l-.358,1.55.358.418.418.537" transform="translate(-83.614 -126.443)" opacity="0.1"/>
      <path id="Path_244" data-name="Path 244" d="M136.273,201.932l.358.179.238.775.477-.119.238.418" transform="translate(-85.739 -127.05)" opacity="0.1"/>
      <path id="Path_245" data-name="Path 245" d="M153.965,221.931l.954-.119.418-.418h.6" transform="translate(-96.871 -139.295)" opacity="0.1"/>
      <path id="Path_246" data-name="Path 246" d="M138.364,219.464l.358.418.6.179.418.119.119.656" transform="translate(-87.055 -138.081)" opacity="0.1"/>
      <path id="Path_247" data-name="Path 247" d="M157.343,211.566l.418-.3.179-.477.358-.06.179-.6" transform="translate(-98.996 -132.211)" opacity="0.1"/>
      <path id="Path_248" data-name="Path 248" d="M297.842,364.528l-1.112,2.967s-.742,9.642,3.708,9.271,7.046-5.933,7.046-5.933-2.6-7.046-5.562-6.3S297.842,364.528,297.842,364.528Z" transform="translate(-258.976 -270.649)" fill="#ff6584"/>
      <path id="Path_249" data-name="Path 249" d="M308.3,343.078s-2.225,6.675.371,6.675,7.417-4.079,7.787-7.417,7.046-15.946,2.225-14.833-7.046,10.383-7.046,10.383Z" transform="translate(-265.728 -247.345)" fill="#fbbebe"/>
      <path id="Path_250" data-name="Path 250" d="M400.317,360.2l2.317,3.872s1.021,7.253-4.171,7.253-12.608-7.046-12.608-7.046-3.708-1.483-5.933-1.112-14.462,0-9.271-6.3,14.091,0,14.091,0l9.271,4.45,4.821-2.6Z" transform="translate(-304.714 -264.101)" fill="#fbbebe"/>
      <path id="Path_251" data-name="Path 251" d="M438.016,355.863l-3.708,5.933s8.529,1.112,9.271,2.967-3.337-9.641-3.337-9.641Z" transform="translate(-345.566 -264.765)" fill="#ff6584"/>
    </g>
  </g>
</svg>
