<svg xmlns="http://www.w3.org/2000/svg" width="583.164" height="394.329" viewBox="0 0 583.164 394.329">
  <defs>
    <style>
      .cls-1 {
        fill: #fff8cc;
      }

      .cls-2 {
        fill: #735751;
      }

      .cls-3 {
        fill: #fb4060;
      }

      .cls-4 {
        opacity: 0.2;
      }

      .cls-5 {
        fill: #3f3d56;
      }

      .cls-6 {
        fill: #462521;
      }

      .cls-7 {
        fill: #a0616a;
      }

      .cls-8 {
        fill: #2f2e41;
      }

      .cls-9 {
        fill: #e6e6e6;
      }

      .cls-10 {
        fill: #ffe0b5;
      }
    </style>
  </defs>
  <g id="undraw_diet_ghvw" transform="translate(0 0)">
    <ellipse id="Ellipse_42" data-name="Ellipse 42" class="cls-1" cx="92.982" cy="7" rx="92.982" ry="7" transform="translate(397.201 380.329)"/>
    <path id="Path_89" data-name="Path 89" class="cls-2" d="M311.7,329.361a13.153,13.153,0,0,0-13.164-12.952H232.424a13.188,13.188,0,0,0-13.152,12.743,12.869,12.869,0,0,0,4.993,10.342,2.879,2.879,0,0,1,1.14,2.635,12.8,12.8,0,0,0-.115,1.714v45.728a12.817,12.817,0,0,0,12.818,12.818h54.326a12.817,12.817,0,0,0,12.817-12.817V343.843a12.888,12.888,0,0,0-.088-1.5,2.781,2.781,0,0,1,1.17-2.565A12.877,12.877,0,0,0,311.7,329.361Z" transform="translate(-216.992 -220.756)"/>
    <path id="Path_90" data-name="Path 90" class="cls-3" d="M309.722,328.989a10.255,10.255,0,0,0-10.262-8.9H233.29a10.279,10.279,0,0,0-10.107,7.962,10.119,10.119,0,0,0,4.836,10.9,2.783,2.783,0,0,1,1.3,3.151,9.923,9.923,0,0,0-.353,2.631v45.724a10.028,10.028,0,0,0,8.167,9.853,10.146,10.146,0,0,0,1.858.172h54.326a9.917,9.917,0,0,0,2.713-.374,10.023,10.023,0,0,0,7.308-9.647V344.724a9.983,9.983,0,0,0-.31-2.469,2.867,2.867,0,0,1-.086-.682,2.788,2.788,0,0,1,1.479-2.459l0,0A10.1,10.1,0,0,0,309.722,328.989Z" transform="translate(-217.876 -221.639)"/>
    <path id="Path_91" data-name="Path 91" class="cls-4" d="M305.243,349.1v-4.3h-7.308V320.086h-4.3v24.719h-23V320.086h-4.3v24.719h-23V320.086h-4.3v24.719H230.87v4.3h8.168V362H230.87v4.3h8.168v12.9H230.87v4.3h8.168v16.809a10.149,10.149,0,0,0,1.857.172h2.442V383.5h23v16.981h4.3V383.5h23v16.981h1.586a9.914,9.914,0,0,0,2.713-.374V383.5h7.308v-4.3h-7.308V366.3h7.308V362h-7.308V349.1Zm-61.906,0h23V362h-23Zm0,30.093V366.3h23v12.9Zm50.3,0h-23V366.3h23Zm0-17.2h-23V349.1h23Z" transform="translate(-219.777 -221.639)"/>
    <path id="Path_92" data-name="Path 92" class="cls-3" d="M311.494,190.527a45.913,45.913,0,0,1-91.826,0Z" transform="translate(-217.087 -190.527)"/>
    <path id="Path_93" data-name="Path 93" class="cls-5" d="M241.234,200.566c0,1.2-.426,2.173-.951,2.173s-.951-.973-.951-2.173a3.542,3.542,0,0,1,.951-2.173,3.542,3.542,0,0,1,.951,2.173Z" transform="translate(-221.809 -192.416)"/>
    <path id="Path_94" data-name="Path 94" class="cls-5" d="M304.517,210.577c0,1.2-.426,2.173-.951,2.173s-.951-.973-.951-2.173a3.542,3.542,0,0,1,.951-2.173,3.542,3.542,0,0,1,.951,2.173Z" transform="translate(-237.006 -194.82)"/>
    <path id="Path_95" data-name="Path 95" class="cls-5" d="M258.038,204.857c0,1.2-.426,2.173-.951,2.173s-.951-.973-.951-2.173a3.542,3.542,0,0,1,.951-2.173A3.542,3.542,0,0,1,258.038,204.857Z" transform="translate(-225.844 -193.447)"/>
    <path id="Path_96" data-name="Path 96" class="cls-5" d="M283.065,227.381c0,1.2-.426,2.173-.951,2.173s-.951-.973-.951-2.173a3.542,3.542,0,0,1,.951-2.173A3.542,3.542,0,0,1,283.065,227.381Z" transform="translate(-231.854 -198.855)"/>
    <path id="Path_97" data-name="Path 97" class="cls-5" d="M256.25,224.521c0,1.2-.426,2.173-.951,2.173s-.951-.973-.951-2.173a3.542,3.542,0,0,1,.951-2.173A3.542,3.542,0,0,1,256.25,224.521Z" transform="translate(-225.415 -198.169)"/>
    <path id="Path_98" data-name="Path 98" class="cls-5" d="M318.818,197.706c0,1.2-.426,2.173-.951,2.173s-.951-.973-.951-2.173a3.542,3.542,0,0,1,.951-2.173,3.542,3.542,0,0,1,.951,2.173Z" transform="translate(-240.44 -191.729)"/>
    <path id="Path_99" data-name="Path 99" class="cls-5" d="M295.936,233.1c0,1.2-.426,2.173-.951,2.173s-.951-.973-.951-2.173a3.542,3.542,0,0,1,.951-2.173A3.542,3.542,0,0,1,295.936,233.1Z" transform="translate(-234.945 -200.229)"/>
    <path id="Path_100" data-name="Path 100" class="cls-2" d="M264.766,239.021a48.549,48.549,0,0,1-48.494-48.494h5.162a43.332,43.332,0,1,0,86.664,0h5.162a48.549,48.549,0,0,1-48.494,48.494Z" transform="translate(-216.272 -190.527)"/>
    <rect id="Rectangle_17" data-name="Rectangle 17" class="cls-6" width="15.197" height="15.197" transform="translate(144.997 16.648)"/>
    <rect id="Rectangle_18" data-name="Rectangle 18" class="cls-6" width="122.338" height="1.52" transform="translate(186.79 23.487)"/>
    <rect id="Rectangle_19" data-name="Rectangle 19" class="cls-6" width="15.197" height="15.197" transform="translate(144.997 131.045)"/>
    <rect id="Rectangle_20" data-name="Rectangle 20" class="cls-6" width="122.338" height="1.52" transform="translate(186.79 137.884)"/>
    <rect id="Rectangle_21" data-name="Rectangle 21" class="cls-6" width="15.197" height="15.197" transform="translate(144.997 244.646)"/>
    <rect id="Rectangle_22" data-name="Rectangle 22" class="cls-6" width="122.338" height="1.52" transform="translate(186.79 251.484)"/>
    <path id="Path_101" data-name="Path 101" class="cls-7" d="M822.453,325.5,803.04,340.8,761.9,326.343s-13.986-15.732-21.9-4.014c-2.709,4.013,15.033,11.427,16.707,12.116,4.184,1.722,44.268,23.713,48.2,20.828S830.94,337.8,830.94,337.8Z" transform="translate(-341.971 -221.136)"/>
    <path id="Path_102" data-name="Path 102" class="cls-8" d="M919.976,275.275c-18.4-6.875-35.9-10.128-50.092,0V242.588a25.046,25.046,0,0,1,25.046-25.046h0a25.046,25.046,0,0,1,25.046,25.046Z" transform="translate(-373.226 -197.015)"/>
    <path id="Path_103" data-name="Path 103" class="cls-2" d="M855.366,386.339l-1.5,10.524s-3.759,11.276,0,32.324l-60.514,165,44.728,12.78,22.176-90.207,31.2-68.783-3.007,78.18L872.655,609.6l46.607-1.879,13.581-143.077a126.741,126.741,0,0,0-11.356-65.975c-3.768-8-7.819-14.308-11.494-15.223C898.966,380.7,855.366,386.339,855.366,386.339Z" transform="translate(-354.847 -236.673)"/>
    <path id="Path_104" data-name="Path 104" class="cls-8" d="M790.783,659.546l-15.41,16.538s-29.693,15.411-8.645,17.29,28.19-6.39,28.19-6.39,26.31-1.879,25.935-5.638-2.255-16.162-2.255-16.162Z" transform="translate(-346.644 -303.155)"/>
    <path id="Path_105" data-name="Path 105" class="cls-8" d="M910.485,664.2v11.652s.376,4.886,0,6.014-6.014,15.035,12.779,12.028,11.276-14.659,11.276-14.659l-4.51-16.914Z" transform="translate(-382.717 -303.821)"/>
    <circle id="Ellipse_43" data-name="Ellipse 43" class="cls-7" cx="18.887" cy="18.887" r="18.887" transform="translate(502.586 30.705)"/>
    <path id="Path_106" data-name="Path 106" class="cls-7" d="M911.3,268.823s-2.631,24.807,0,29.317-26.686-4.51-26.686-4.51,6.39-16.914,4.135-23.679S911.3,268.823,911.3,268.823Z" transform="translate(-376.762 -208.8)"/>
    <path id="Path_107" data-name="Path 107" class="cls-9" d="M912.191,345.546l6.014,16.538-56,6.39s-6.014-1.128-6.014-6.014-6.39-22.176-6.39-22.176-15.649-12.684-23.167-16.067c-2.725-1.225,1.351-.719,3.644-5.921.688-1.564,1.511-3.214,2.409-4.886.733-1.372,1.522-2.763,2.33-4.134.981-1.673,1.992-3.319,2.973-4.886,2.969-4.74,5.679-8.724,6.548-10.336,2.631-4.886,27.367-5.322,27.367-5.322,7.074,4.45,27.51,5.322,27.51,5.322s14.057,5.882,19.913,10.336C919.749,304.709,912.191,345.546,912.191,345.546Z" transform="translate(-362.622 -214.109)"/>
    <path id="Path_108" data-name="Path 108" class="cls-8" d="M911.442,224.2v-.448l-.533.03a25.065,25.065,0,0,0-21.541-4.3,24.957,24.957,0,0,1,9.614,4.967l-18.1,1.005-7.641,16.98h5.171l4.168-7.641v7.641h17.49l1.189-5.943,3.3,5.943h3.436c.021.424.054.844.054,1.273l-3.4,32.687,16.131-6.792v-25.9A24.994,24.994,0,0,0,911.442,224.2Z" transform="translate(-374.031 -197.283)"/>
    <path id="Path_109" data-name="Path 109" class="cls-7" d="M951.72,339.758l-1.128,29.693-3.007,57.507s4.135,24.807-6.39,24.431-2.631-29.317-2.631-29.317l-3.007-45.48,3.007-31.948Z" transform="translate(-388.997 -226.363)"/>
    <path id="Path_110" data-name="Path 110" class="cls-9" d="M951.64,345.349c0,3.383-18.981,2.443-18.981,2.443L922.7,295.735s14.057,5.882,19.913,10.336a17.652,17.652,0,0,1,3.334,4.886c.447,1.206.872,2.6,1.274,4.134s.771,3.169,1.12,4.886a199.976,199.976,0,0,1,3.3,25.371Z" transform="translate(-385.909 -215.791)"/>
    <path id="Path_111" data-name="Path 111" class="cls-10" d="M264.583,515.71l-28.77-2.979a9.134,9.134,0,1,0-15.726,4.913,9.138,9.138,0,1,0,15.625,4.224l28.871-2.654Z" transform="translate(-216.6 -265.392)"/>
    <path id="Path_112" data-name="Path 112" class="cls-3" d="M303.136,534.518c11.31,2.781,22.7-5.241,23.293-16.873q.025-.484.025-.974t-.025-.974c-.59-11.632-11.983-19.654-23.293-16.873l-38.369,9.435a8.412,8.412,0,1,0,0,16.824Z" transform="translate(-225.897 -264.427)"/>
  </g>
</svg>
