<svg id="undraw_searching_p5ux" xmlns="http://www.w3.org/2000/svg" width="599.065" height="432.574" viewBox="0 0 599.065 432.574">
  <defs>
    <style>
      .cls-1 {
        fill: #735751;
      }

      .cls-2 {
        fill: #3f3d56;
      }

      .cls-3 {
        fill: #2f2e41;
      }

      .cls-4 {
        fill: #fbbebe;
      }

      .cls-5 {
        fill: #462521;
      }

      .cls-6 {
        opacity: 0.4;
      }

      .cls-7 {
        fill: #575a89;
      }

      .cls-8 {
        fill: #fb4060;
      }

      .cls-9 {
        fill: #f2f2f2;
      }

      .cls-10 {
        fill: #e6e6e6;
      }

      .cls-11 {
        fill: #fff8cc;
      }
    </style>
  </defs>
  <rect id="Rectangle_36" data-name="Rectangle 36" class="cls-1" width="5.333" height="210.639" transform="translate(73.541 210.704)"/>
  <path id="Path_115" data-name="Path 115" class="cls-1" d="M915.287,376.886c-.34,73.656,51.481,133.605,51.481,133.605s52.371-59.47,52.71-133.125S968,243.761,968,243.761,915.628,303.23,915.287,376.886Z" transform="translate(-890.96 -139.338)"/>
  <rect id="Rectangle_37" data-name="Rectangle 37" class="cls-2" width="2.743" height="108.337" transform="translate(180.166 309.813)"/>
  <path id="Path_116" data-name="Path 116" class="cls-1" d="M767.935,590.118c-.175,37.883,26.478,68.716,26.478,68.716s26.936-30.586,27.11-68.469-26.478-68.716-26.478-68.716S768.109,552.236,767.935,590.118Z" transform="translate(-613.08 -266.499)"/>
  <ellipse id="Ellipse_47" data-name="Ellipse 47" class="cls-1" cx="74.309" cy="11.39" rx="74.309" ry="11.39" transform="translate(51.797 409.793)"/>
  <path id="Path_117" data-name="Path 117" class="cls-3" d="M845.1,328.9c6.3-10.638,18.751-11.133,18.751-11.133s12.137-1.552,19.923,14.649c7.257,15.1,17.273,29.681,1.612,33.216l-2.829-8.8-1.752,9.46a61.269,61.269,0,0,1-6.7.115c-16.771-.541-32.743.158-32.228-5.86C842.559,352.539,839.04,339.133,845.1,328.9Z" transform="translate(-725.121 -173.184)"/>
  <path id="Path_118" data-name="Path 118" class="cls-4" d="M915.812,371.6s-8.136,11.391-3.254,20.611-11.39,18.984-11.39,18.984l-11.933-26.035s14.1-9.221,10.306-17.9Z" transform="translate(-773.162 -195.85)"/>
  <ellipse id="Ellipse_48" data-name="Ellipse 48" class="cls-4" cx="14.102" cy="14.102" rx="14.102" ry="14.102" transform="translate(123.123 152.423)"/>
  <path id="Path_119" data-name="Path 119" class="cls-4" d="M833.37,362.695l-11.785-15.206s-4.15-15.938-10.16-15.13,2.374,19.114,2.374,19.114l11.71,16.831Z" transform="translate(-647.339 -179.867)"/>
  <path id="Path_120" data-name="Path 120" class="cls-4" d="M883.4,708.642l-3.8,20.069-8.136,2.17,2.17-23.866Z" transform="translate(-757.025 -323.528)"/>
  <path id="Path_121" data-name="Path 121" class="cls-4" d="M1047.963,666.354l-14.645,20.069-5.967,2.712L1022.47,681l14.645-18.984Z" transform="translate(-1003.489 -302.936)"/>
  <path id="Path_122" data-name="Path 122" class="cls-1" d="M889.512,413.954l9.048-11.911s17.53,3.232,19.157,4.86-4.339,31.459-4.339,31.459-1.085,8.136-5.966,12.475l-4.882,3.254-40.138-8.136L860.882,428.1a46.869,46.869,0,0,1,12.357-35.839h0l6.984.955Z" transform="translate(-759.88 -207.29)"/>
  <path id="Path_123" data-name="Path 123" class="cls-1" d="M795.483,401.124l2.712-1.085,12.475-1.085s4.339-1.085,3.254-3.254-2.17-2.712,0-3.254,2.712-1.085,2.17-2.712-3.8-4.882-3.8-4.882l9.221-7.594s.5.353,1.306,1.006c4.578,3.707,19.064,17.08,8.458,30.453-12.475,15.73-27.12,24.95-39.053,21.7Z" transform="translate(-639.816 -200.426)"/>
  <path id="Path_124" data-name="Path 124" class="cls-5" d="M995.287,496.682v7.594s4.882,9.221,3.254,17.9-2.17,13.018-2.17,13.018a74.057,74.057,0,0,1-3.8,21.7c-3.8,10.848,8.678,81.9-7.051,82.988s-24.408,2.17-29.29-3.254S964.37,537.9,964.37,537.9s-44.477,92.751-53.7,88.954S878.128,614.383,880.84,609.5,951.894,496.14,951.894,496.14l2.17-4.882Z" transform="translate(-851.552 -252.592)"/>
  <path id="Path_125" data-name="Path 125" class="cls-3" d="M916.641,791.221s8.678-.542,8.678,2.17,4.339,11.933,4.339,11.933,3.254,10.848-5.424,9.763-14.1-10.848-14.1-10.848l2.17-10.306Z" transform="translate(-798.942 -389.834)"/>
  <path id="Path_126" data-name="Path 126" class="cls-3" d="M1116.3,751.659s7.594-4.882,7.051-1.627-1.085,11.933-4.882,12.475-15.187,3.8-15.73,4.882-13.56,5.424-13.56-1.627,8.136-12.475,8.136-12.475l9.221-7.051s5.966-.542,7.051,3.254S1116.3,751.659,1116.3,751.659Z" transform="translate(-1089.179 -369.257)"/>
  <ellipse id="Ellipse_49" data-name="Ellipse 49" class="cls-3" cx="9.006" cy="9.006" rx="9.006" ry="9.006" transform="translate(128.198 135.628)"/>
  <path id="Path_127" data-name="Path 127" class="cls-3" d="M885.484,305.93a9.006,9.006,0,0,0-8.057-8.955,9.1,9.1,0,0,1,.947-.051,9.006,9.006,0,1,1,0,18.012,9.1,9.1,0,0,1-.948-.051A9.006,9.006,0,0,0,885.484,305.93Z" transform="translate(-738.326 -163.666)"/>
  <path id="Path_128" data-name="Path 128" class="cls-3" d="M818.224,279.753l12.3-6.446,16.993,2.637,3.516,15.528-8.752-.337-2.445-5.7v5.611l-4.038-.155-2.344-9.083-1.465,9.668-14.356-.293Z" transform="translate(-695.463 -125.065)"/>
  <path id="Path_129" data-name="Path 129" class="cls-4" d="M861.31,495.34l18.977.513s16.193,3.151,15.284-3.385-16.706-4.25-16.706-4.25l-17.292-2.638Z" transform="translate(-737.813 -249.995)"/>
  <path id="Path_130" data-name="Path 130" class="cls-1" d="M928.253,390.523a4.05,4.05,0,0,0-4.467,2.781c-3.715,11.707-15.161,50.885-3.789,56.26,13.394,6.331,23.168,6.052,23.168,6.052l5.232-12.881-4.763-4.47-5.085-32.693-2.436-13.859Z" transform="translate(-819.77 -206.475)"/>
  <path id="Path_131" data-name="Path 131" class="cls-6" d="M858.969,379.515l2.17,21.7,18.984,8.136-21.154-4.882Z" transform="translate(-746.965 -173.665)"/>
  <path id="Path_132" data-name="Path 132" class="cls-5" d="M791.567,298.705h0a25.406,25.406,0,0,0-14.836,10.777l-1.774,2.748-.089.114-31.126,9.108a2.269,2.269,0,0,0-1.552,2.775l2.416,8.86a2.269,2.269,0,0,0,2.8,1.588l31.134-8.7h0l3.127,1.182a27.942,27.942,0,0,0,17.965.611h0Z" transform="translate(-577.183 -164.481)"/>
  <ellipse id="Ellipse_50" data-name="Ellipse 50" class="cls-7" cx="1.901" cy="3.564" rx="1.901" ry="3.564" transform="matrix(-0.281, -0.96, 0.96, -0.281, 182.14, 161.742)"/>
  <ellipse id="Ellipse_51" data-name="Ellipse 51" class="cls-2" cx="1.307" cy="1.307" rx="1.307" ry="1.307" transform="translate(181.889 158.236)"/>
  <ellipse id="Ellipse_52" data-name="Ellipse 52" class="cls-8" cx="15.236" cy="6.89" rx="15.236" ry="6.89" transform="translate(216.482 165.501) rotate(-107.966)"/>
  <path id="Path_133" data-name="Path 133" class="cls-6" d="M742.8,315.234c-2.5-7.713-1.821-14.9,1.47-16.465a3.2,3.2,0,0,0-.583.129c-3.62,1.174-4.45,8.614-1.854,16.619s7.634,13.542,11.254,12.368a3.19,3.19,0,0,0,.384-.154C749.91,328.184,745.259,322.816,742.8,315.234Z" transform="translate(-530.051 -164.51)"/>
  <path id="Path_134" data-name="Path 134" class="cls-8" d="M47.765,185.5l70.641-54.8a467.509,467.509,0,0,0,35.915-31.126c20.137-19.194,47.473-34.54,79.3-42.711C310.947,37.011,372.2,72.209,400.067,123.891c42.576,78.976,75.2,207.132-113.576,138.915-41.286-14.919-83.077-16.5-114.765-24.363L56.986,214.785Z" transform="translate(166.21 -51.242)"/>
  <ellipse id="Ellipse_53" data-name="Ellipse 53" class="cls-9" cx="3.797" cy="3.797" rx="3.797" ry="3.797" transform="translate(422.258 34.451)"/>
  <path id="Path_135" data-name="Path 135" class="cls-9" d="M450.949,85.861h.988v-.988h.193v.988h.988v.193h-.988v.988h-.193v-.988h-.988Z" transform="translate(-98.65 -38.838)"/>
  <path id="Path_136" data-name="Path 136" class="cls-9" d="M633.949,237.861h.988v-.988h.193v.988h.988v.193h-.988v.988h-.193v-.988h-.988Z" transform="translate(-380.91 -108.392)"/>
  <path id="Path_137" data-name="Path 137" class="cls-9" d="M620.949,284.861h.988v-.988h.193v.988h.988v.193h-.988v.988h-.193v-.988h-.988Z" transform="translate(-360.859 -129.9)"/>
  <path id="Path_138" data-name="Path 138" class="cls-9" d="M61.949,324.861h.988v-.988h.193v.988h.988v.193H63.13v.988h-.193v-.988h-.988Z" transform="translate(501.344 -148.203)"/>
  <path id="Path_139" data-name="Path 139" class="cls-9" d="M141.949,106.861h.988v-.988h.193v.988h.988v.193h-.988v.988h-.193v-.988h-.988Z" transform="translate(377.952 -48.447)"/>
  <path id="Path_140" data-name="Path 140" class="cls-9" d="M452.949,292.861h.988v-.988h.193v.988h.988v.193h-.988v.988h-.193v-.988h-.988Z" transform="translate(-101.735 -133.56)"/>
  <path id="Path_141" data-name="Path 141" class="cls-9" d="M261.949,42.861h.988v-.988h.193v.988h.988v.193h-.988v.988h-.193v-.988h-.988Z" transform="translate(192.864 -19.161)"/>
  <path id="Path_142" data-name="Path 142" class="cls-10" d="M313.067,238.915l1.231.19c-.385,2.462-.689,4.979-.911,7.469l-1.242-.108C312.367,243.943,312.677,241.4,313.067,238.915Z" transform="translate(141.366 -137.121)"/>
  <path id="Path_143" data-name="Path 143" class="cls-10" d="M307.947,211.575l1.193.363c-.721,2.387-1.367,4.833-1.915,7.268l-1.22-.277C306.564,216.467,307.22,213.994,307.947,211.575Z" transform="translate(149.855 -124.61)"/>
  <path id="Path_144" data-name="Path 144" class="cls-10" d="M299.139,185.355l1.134.521c-1.041,2.273-2.018,4.605-2.9,6.937l-1.166-.439C297.1,190.014,298.082,187.649,299.139,185.355Z" transform="translate(164.037 -112.612)"/>
  <path id="Path_145" data-name="Path 145" class="cls-10" d="M286.817,160.775l1.052.667c-1.34,2.1-2.625,4.285-3.819,6.471l-1.1-.6C284.159,165.1,285.461,162.9,286.817,160.775Z" transform="translate(183.628 -101.364)"/>
  <path id="Path_146" data-name="Path 146" class="cls-10" d="M271.209,138.245l.949.808c-1.616,1.9-3.189,3.884-4.676,5.89l-1-.743C267.982,142.172,269.571,140.165,271.209,138.245Z" transform="translate(208.272 -91.055)"/>
  <path id="Path_147" data-name="Path 147" class="cls-10" d="M252.625,118.185l.83.928c-1.866,1.665-3.694,3.417-5.435,5.2l-.895-.873C248.888,121.635,250.737,119.866,252.625,118.185Z" transform="translate(237.477 -81.875)"/>
  <path id="Path_148" data-name="Path 148" class="cls-10" d="M231.407,100.965l.7,1.031c-2.072,1.394-4.122,2.88-6.091,4.415l-.77-.982C227.241,103.878,229.313,102.375,231.407,100.965Z" transform="translate(270.693 -73.995)"/>
  <path id="Path_149" data-name="Path 149" class="cls-10" d="M210.869,89.006v1.41c-1.3.678-2.582,1.389-3.84,2.115l-.624-1.079Q208.6,90.182,210.869,89.006Z" transform="translate(302.149 -68.523)"/>
  <path id="Path_150" data-name="Path 150" class="cls-10" d="M315.835,267.2l-1.247-.023c-.023,1.259-.025,2.525-.005,3.762l1.247-.019C315.811,269.7,315.813,268.447,315.835,267.2Z" transform="translate(138.514 -150.055)"/>
  <path id="Path_151" data-name="Path 151" class="cls-10" d="M178.067,435.915l1.231.19c-.385,2.462-.689,4.979-.911,7.469l-1.242-.108C177.367,440.943,177.677,438.4,178.067,435.915Z" transform="translate(349.59 -227.268)"/>
  <path id="Path_152" data-name="Path 152" class="cls-10" d="M172.947,408.575l1.193.363c-.721,2.387-1.367,4.833-1.915,7.268L171,415.93C171.564,413.468,172.22,410.994,172.947,408.575Z" transform="translate(358.079 -214.757)"/>
  <path id="Path_153" data-name="Path 153" class="cls-10" d="M164.139,382.355l1.134.521c-1.041,2.273-2.018,4.605-2.9,6.937l-1.166-.439C162.1,387.014,163.082,384.649,164.139,382.355Z" transform="translate(372.262 -202.759)"/>
  <path id="Path_154" data-name="Path 154" class="cls-10" d="M151.817,357.775l1.052.667c-1.34,2.1-2.625,4.285-3.819,6.471l-1.1-.6C149.159,362.1,150.461,359.9,151.817,357.775Z" transform="translate(391.852 -191.511)"/>
  <path id="Path_155" data-name="Path 155" class="cls-10" d="M136.209,335.245l.949.808c-1.616,1.9-3.189,3.884-4.675,5.891l-1-.743C132.982,339.172,134.571,337.165,136.209,335.245Z" transform="translate(416.496 -181.201)"/>
  <path id="Path_156" data-name="Path 156" class="cls-10" d="M117.625,315.185l.83.927c-1.866,1.665-3.694,3.417-5.435,5.2l-.895-.873C113.888,318.635,115.737,316.866,117.625,315.185Z" transform="translate(445.701 -172.022)"/>
  <path id="Path_157" data-name="Path 157" class="cls-10" d="M96.407,297.965l.7,1.031c-2.072,1.394-4.122,2.88-6.091,4.415l-.77-.982C92.241,300.878,94.313,299.375,96.407,297.965Z" transform="translate(478.917 -164.142)"/>
  <path id="Path_158" data-name="Path 158" class="cls-10" d="M75.869,286.005v1.41c-1.3.678-2.582,1.389-3.84,2.115l-.624-1.079Q73.6,287.182,75.869,286.005Z" transform="translate(510.374 -158.669)"/>
  <path id="Path_159" data-name="Path 159" class="cls-10" d="M180.835,464.2l-1.247-.023c-.023,1.259-.025,2.525-.005,3.762l1.247-.02C180.811,466.7,180.813,465.447,180.835,464.2Z" transform="translate(346.738 -240.201)"/>
  <path id="Path_160" data-name="Path 160" class="cls-10" d="M640.067,336.915l1.231.19c-.385,2.463-.689,4.979-.911,7.469l-1.242-.109C639.367,341.943,639.677,339.4,640.067,336.915Z" transform="translate(-363 -181.965)"/>
  <path id="Path_161" data-name="Path 161" class="cls-10" d="M634.947,309.575l1.193.363c-.721,2.387-1.367,4.833-1.915,7.268l-1.22-.277C633.564,314.467,634.22,311.994,634.947,309.575Z" transform="translate(-354.511 -169.455)"/>
  <path id="Path_162" data-name="Path 162" class="cls-10" d="M626.139,283.355l1.134.521c-1.041,2.273-2.018,4.6-2.9,6.937l-1.166-.439C624.1,288.014,625.082,285.649,626.139,283.355Z" transform="translate(-340.328 -157.457)"/>
  <path id="Path_163" data-name="Path 163" class="cls-10" d="M613.817,258.775l1.052.667c-1.34,2.1-2.625,4.285-3.818,6.471l-1.1-.6C611.159,263.1,612.461,260.9,613.817,258.775Z" transform="translate(-320.738 -146.209)"/>
  <path id="Path_164" data-name="Path 164" class="cls-10" d="M598.209,236.245l.949.808c-1.616,1.9-3.189,3.884-4.676,5.891l-1-.743C594.982,240.172,596.571,238.165,598.209,236.245Z" transform="translate(-296.094 -135.899)"/>
  <path id="Path_165" data-name="Path 165" class="cls-10" d="M579.625,216.185l.83.928c-1.866,1.665-3.694,3.417-5.435,5.2l-.895-.873C575.888,219.635,577.737,217.866,579.625,216.185Z" transform="translate(-266.889 -126.72)"/>
  <path id="Path_166" data-name="Path 166" class="cls-10" d="M558.407,198.965l.7,1.031c-2.072,1.394-4.122,2.88-6.091,4.415l-.77-.982C554.241,201.878,556.313,200.375,558.407,198.965Z" transform="translate(-233.673 -118.84)"/>
  <path id="Path_167" data-name="Path 167" class="cls-10" d="M537.869,187.005v1.41c-1.3.678-2.582,1.389-3.84,2.115l-.624-1.079Q535.6,188.182,537.869,187.005Z" transform="translate(-202.217 -113.367)"/>
  <path id="Path_168" data-name="Path 168" class="cls-10" d="M642.835,365.2l-1.247-.023c-.023,1.259-.025,2.525-.005,3.762l1.247-.019C642.812,367.7,642.813,366.447,642.835,365.2Z" transform="translate(-365.852 -194.899)"/>
  <path id="Path_169" data-name="Path 169" class="cls-9" d="M145.573,199.119h.919v-.92h.18v.92h.92v.179h-.92v.92h-.18v-.92h-.919Z" transform="translate(372.513 -90.695)"/>
  <path id="Path_170" data-name="Path 170" class="cls-9" d="M126.032,301.476h.919v-.92h.18v.92h.92v.18h-.92v.919h-.18v-.919h-.919Z" transform="translate(402.653 -137.534)"/>
  <path id="Path_171" data-name="Path 171" class="cls-9" d="M68.695,391.183h.92v-.919h.18v.919h.919v.18h-.919v.92h-.18v-.92h-.92Z" transform="translate(491.09 -178.584)"/>
  <path id="Path_172" data-name="Path 172" class="cls-11" d="M380.57,241.858a66.613,66.613,0,1,0-30.907,24.816,21.548,21.548,0,1,0,30.907-24.816Z" transform="translate(92.701 -90.971)"/>
  <path id="Path_173" data-name="Path 173" class="cls-8" d="M360.137,190.679c15.271,0,25.777,8.47,25.777,20.646,0,8.063-3.909,13.642-11.443,18.081-7.086,4.113-9.488,7.126-9.488,12.339h0a3.217,3.217,0,0,1-3.217,3.217h-7.807a3.217,3.217,0,0,1-3.215-3.1l-.014-.4c-.692-8.389,2.24-13.6,9.611-17.918,6.882-4.113,9.773-6.719,9.773-11.769s-4.887-8.755-10.954-8.755c-4.612,0-8.262,2.245-9.936,5.91a7.188,7.188,0,0,1-6.57,4.108h0a7.066,7.066,0,0,1-6.31-10.3C340.258,195.339,348.514,190.679,360.137,190.679Zm-10.71,69.8a8.742,8.742,0,1,1,8.715,8.389A8.529,8.529,0,0,1,349.427,260.477Z" transform="translate(57.064 -115.048)"/>
</svg>
